<?xml version="1.0" encoding="utf-8"?>
<!-- Generator: Adobe Illustrator 21.1.0, SVG Export Plug-In . SVG Version: 6.00 Build 0)  -->
<svg version="1.1" id="Ebene_1" xmlns="http://www.w3.org/2000/svg" xmlns:xlink="http://www.w3.org/1999/xlink" x="0px" y="0px"
	 viewBox="0 0 16 16" style="enable-background:new 0 0 16 16;" xml:space="preserve">
<style type="text/css">
	.st0{fill:#3C1772;}
	.st1{fill:#4E1F92;}
	.st2{fill:#733FC0;}
	.st3{fill:#FCFAFF;}
</style>
<path class="st0" d="M14.9,11L9,15c-0.6,0.4-1.5,0.4-2.1,0L1.1,11c-0.6-0.4-0.6-1,0-1.4L7,5.4C7.5,5,8.5,5,9,5.4l5.9,4.1
	C15.5,9.9,15.5,10.6,14.9,11z"/>
<path class="st1" d="M14.9,8.8L9,12.9c-0.6,0.4-1.5,0.4-2.1,0L1.1,8.8c-0.6-0.4-0.6-1,0-1.4L7,3.3c0.6-0.4,1.5-0.4,2.1,0l5.9,4.1
	C15.5,7.7,15.5,8.4,14.9,8.8z"/>
<path class="st2" d="M14.9,6.6L9,10.7c-0.6,0.4-1.5,0.4-2.1,0L1.1,6.6c-0.6-0.4-0.6-1,0-1.4L7,1.1c0.6-0.4,1.5-0.4,2.1,0l5.9,4.1
	C15.5,5.6,15.5,6.2,14.9,6.6z"/>
<title>Layer 1</title>
<path class="st3" d="M4,5l1.4-1.1c0.3-0.3,0.8-0.6,1.2-0.7c0.4-0.1,1,0,1.4,0.3c0.5,0.4,0.7,0.8,0.5,1.2l0,0C9.2,4.5,9.9,4.6,10.5,5
	c0.7,0.5,1,1.3,0.2,1.9L8.8,8.4L4,5z M6.6,6.1l1-0.8C8.2,4.8,8.2,4.4,7.7,4C7,3.6,6.5,3.8,6.1,4.2L5.1,5L6.6,6.1z M8.8,7.6l1.3-1
	c0.4-0.4,0.4-0.8-0.1-1.2C9.3,5,8.7,5.2,8.3,5.5l-1.2,1L8.8,7.6z"/>
</svg>
